# xmcd
#
# Track frame offsets: 
#        150
#        12962
#        22232
#        33295
#        47137
#        57820
#        69467
#        80835
#        92105
#        110647
#        120425
#        132760
#        144415
#        158845
#        170032
#        183195
#        193445
#        204925
#
# Disc length: 2997 seconds
#
# Revision: 0
# Processed by: cddbd v1.5.2PL0 Copyright (c) Steve Scherf et al.
# Submitted via: ExactAudioCopy v0.99pb4
#
DISCID=fd0bb312
DTITLE=Various Artist - The Country Collection
DYEAR=1999
DGENRE=Country
TTITLE0=Boxcar Willie, Hobo Heaven
TTITLE1=Bellamy Brothers, Let your love flow
TTITLE2=Waylon Jennings, Dream baby
TTITLE3=Willie Nelson, Home is where yuo're happy
TTITLE4=Dolly Parton, It wasn't God that made honky tonk angels
TTITLE5=Jeannie C. Riley, Total woman
TTITLE6=Tammy Wynette, Stand by your man
TTITLE7=Comway Twitty, Angel wing
TTITLE8=Nitty Gritty Dirt Band, Mr. Bojangles
TTITLE9=Leroy Van Dyke, The auctioneer
TTITLE10=Willie Nelson, Shelter of my arms
TTITLE11=Dolly Parton, Makin' believe
TTITLE12=Freddie Fender, Jambalaya
TTITLE13=Billy Joe Spears, I'm so lonesome I could cry
TTITLE14=Kenny Rogers, Ruby don't take your love to town
TTITLE15=Feron Young, Hello walls
TTITLE16=George Jones, She's my rock
TTITLE17=Lee Greenwood, God bless the U.S.A
EXTD=
EXTT0=Boxcar Willie
EXTT1=
EXTT2=
EXTT3=
EXTT4=
EXTT5=
EXTT6=
EXTT7=
EXTT8=
EXTT9=
EXTT10=
EXTT11=
EXTT12=
EXTT13=
EXTT14=
EXTT15=
EXTT16=
EXTT17=
PLAYORDER=
